<svg xmlns="http://www.w3.org/2000/svg" xmlns:xlink="http://www.w3.org/1999/xlink" width="1366" zoomAndPan="magnify" viewBox="0 0 1024.5 576" height="768" preserveAspectRatio="xMidYMid meet" version="1.0"><defs><clipPath id="5413f8a531"><path d="M 372 173.089844 L 625 173.089844 L 625 376 L 372 376 Z M 372 173.089844 " clip-rule="nonzero"/></clipPath><clipPath id="dbc75fd3b6"><path d="M 647 211 L 652.082031 211 L 652.082031 252 L 647 252 Z M 647 211 " clip-rule="nonzero"/></clipPath><clipPath id="0bd4739885"><path d="M 561 399 L 590 399 L 590 403.332031 L 561 403.332031 Z M 561 399 " clip-rule="nonzero"/></clipPath></defs><path fill="#ffa849" d="M 631.074219 205.480469 C 631.074219 193.769531 621.570312 184.285156 609.863281 184.285156 C 563.1875 184.285156 452.054688 184.285156 405.378906 184.285156 C 393.671875 184.285156 384.164062 193.769531 384.164062 205.480469 C 384.164062 243.617188 384.164062 323.332031 384.164062 361.472656 C 384.164062 373.179688 393.671875 382.6875 405.378906 382.6875 C 452.054688 382.6875 563.1875 382.6875 609.863281 382.6875 C 621.570312 382.6875 631.074219 373.179688 631.074219 361.472656 C 631.074219 323.332031 631.074219 243.617188 631.074219 205.480469 " fill-opacity="1" fill-rule="evenodd"/><g clip-path="url(#5413f8a531)"><path fill="#ffffff" d="M 372.6875 223.257812 C 372.6875 223.257812 372.875 310.867188 372.953125 352.25 C 372.96875 365.078125 383.386719 375.476562 396.234375 375.476562 C 442.871094 375.476562 554.078125 375.476562 600.753906 375.476562 C 613.621094 375.476562 624.035156 365.058594 624.035156 352.195312 L 624.035156 196.390625 C 624.035156 190.183594 621.550781 184.226562 617.148438 179.863281 C 612.746094 175.5 606.769531 173.070312 600.566406 173.109375 C 570.679688 173.355469 520.058594 173.773438 520.058594 173.773438 C 518.917969 173.773438 517.988281 174.71875 518.007812 175.859375 C 518.007812 176.996094 518.9375 177.910156 520.097656 177.890625 C 520.097656 177.890625 570.71875 177.492188 600.601562 177.246094 C 605.707031 177.207031 610.621094 179.199219 614.246094 182.785156 C 617.871094 186.390625 619.898438 191.285156 619.898438 196.390625 C 619.898438 234.585938 619.898438 314.109375 619.898438 352.195312 C 619.898438 362.761719 611.34375 371.339844 600.753906 371.339844 L 396.234375 371.339844 C 385.664062 371.339844 377.089844 362.800781 377.070312 352.230469 C 376.992188 310.847656 376.820312 223.257812 376.820312 223.257812 C 376.804688 222.121094 375.875 221.191406 374.734375 221.191406 C 373.597656 221.191406 372.6875 222.121094 372.6875 223.257812 " fill-opacity="1" fill-rule="evenodd"/></g><path fill="#ffffff" d="M 578.25 390.597656 L 542.464844 390.597656 C 541.328125 390.597656 540.398438 391.507812 540.398438 392.648438 C 540.398438 393.785156 541.328125 394.714844 542.464844 394.714844 L 578.25 394.714844 C 579.390625 394.714844 580.300781 393.785156 580.300781 392.648438 C 580.300781 391.507812 579.390625 390.597656 578.25 390.597656 " fill-opacity="1" fill-rule="evenodd"/><g clip-path="url(#dbc75fd3b6)"><path fill="#ffffff" d="M 652.097656 249.710938 L 652.097656 213.941406 C 652.097656 212.785156 651.1875 211.875 650.03125 211.875 C 648.894531 211.875 647.964844 212.785156 647.964844 213.941406 L 647.964844 249.710938 C 647.964844 250.867188 648.894531 251.777344 650.03125 251.777344 C 651.1875 251.777344 652.097656 250.867188 652.097656 249.710938 " fill-opacity="1" fill-rule="evenodd"/></g><g clip-path="url(#0bd4739885)"><path fill="#ffffff" d="M 587.832031 399.214844 L 563.925781 399.214844 C 562.789062 399.214844 561.878906 400.144531 561.878906 401.28125 C 561.878906 402.421875 562.789062 403.332031 563.925781 403.332031 L 587.832031 403.332031 C 588.992188 403.332031 589.902344 402.421875 589.902344 401.28125 C 589.902344 400.144531 588.992188 399.214844 587.832031 399.214844 " fill-opacity="1" fill-rule="evenodd"/></g><path fill="#ffffff" d="M 643.484375 232.15625 L 643.484375 208.25 C 643.484375 207.109375 642.554688 206.179688 641.417969 206.179688 C 640.277344 206.179688 639.347656 207.109375 639.347656 208.25 L 639.347656 232.15625 C 639.347656 233.296875 640.277344 234.226562 641.417969 234.226562 C 642.554688 234.226562 643.484375 233.296875 643.484375 232.15625 " fill-opacity="1" fill-rule="evenodd"/></svg>